<?xml version="1.0" encoding="UTF-8"?><svg id="a" xmlns="http://www.w3.org/2000/svg" viewBox="0 0 292 115"><defs><style>.b{fill:var(--color, #575ad4);}</style></defs><path class="b" d="m42.95,82.04l-10.95-23.04-3.07,51.53H7.17L13.85,9.7c.18-2.64,2.37-4.7,5.02-4.7h15.41l13.72,38L58.5,5h15.56c2.59,0,4.76,1.95,5.02,4.53l10.53,101h-21.77l-5.85-52.53-8.38,23.79c-.57,1.61-2.09,2.68-3.79,2.68h-3.04c-1.64,0-3.14-.95-3.85-2.43Z"/><path class="b" d="m123.17,106.73c-6.65-4.18-11.71-10.39-15.17-18.63-3.46-8.25-5.19-18.3-5.19-30.18s1.73-22.26,5.19-30.51c3.46-8.25,8.52-14.45,15.17-18.63,6.65-4.18,14.65-6.27,23.99-6.27s17.81,2.09,24.4,6.27c6.6,4.18,11.63,10.39,15.09,18.63,3.46,8.25,5.19,18.42,5.19,30.51s-1.73,21.93-5.19,30.18c-3.46,8.25-8.49,14.46-15.09,18.63-6.6,4.18-14.73,6.27-24.4,6.27s-17.34-2.09-23.99-6.27Zm36.11-17.89c3.13-2.47,5.47-6.27,7.01-11.38,1.54-5.11,2.31-11.63,2.31-19.54s-.8-14.79-2.39-19.95c-1.59-5.17-3.93-8.96-7.01-11.38-3.08-2.42-7.04-3.63-11.87-3.63s-8.66,1.24-11.79,3.71c-3.13,2.47-5.5,6.27-7.09,11.38-1.6,5.11-2.39,11.74-2.39,19.87s.8,14.46,2.39,19.62c1.59,5.17,3.93,8.96,7.01,11.38,3.08,2.42,7.03,3.63,11.87,3.63s8.82-1.24,11.96-3.71Z"/><path class="b" d="m216.99,111.43c-7.15-1.04-13.91-2.61-20.28-4.7l4.12-19.29c6.71,1.65,13.22,2.94,19.54,3.87,6.32.94,12.67,1.4,19.05,1.4,6.04,0,10.44-.93,13.19-2.8,2.75-1.87,4.12-4.56,4.12-8.08,0-2.42-.61-4.45-1.81-6.1-1.21-1.65-3.3-3.16-6.27-4.53-2.97-1.37-7.26-2.78-12.86-4.2-8.8-2.2-15.91-4.75-21.36-7.67-5.44-2.91-9.54-6.51-12.29-10.8-2.75-4.29-4.12-9.45-4.12-15.5,0-9.89,3.43-17.45,10.31-22.67,6.87-5.22,17.01-7.83,30.42-7.83,6.37,0,12.5.36,18.38,1.07,5.88.72,11.35,1.84,16.41,3.38-.77,7.26-1.76,13.8-2.97,19.62-5.28-1.21-10.58-2.14-15.91-2.8s-10.8-.99-16.41-.99c-6.05,0-10.53.85-13.44,2.56-2.91,1.71-4.37,4.26-4.37,7.67,0,2.31.68,4.2,2.06,5.69,1.37,1.48,3.55,2.86,6.52,4.12,2.97,1.27,7.14,2.67,12.53,4.2,9.01,2.53,16.22,5.19,21.6,8s9.4,6.35,12.04,10.64c2.64,4.29,3.96,9.62,3.96,16,0,10.12-3.38,17.87-10.14,23.25-6.76,5.39-16.57,8.08-29.44,8.08-7.92,0-15.45-.52-22.59-1.57Z"/></svg>