<?xml version="1.0" encoding="UTF-8"?><svg xmlns="http://www.w3.org/2000/svg" viewBox="0 0 292 115"><defs><style>.b{fill:var(--color, #575ad4);}</style></defs><path class="b" d="m26.73,105.56c-7.56-4.13-13.4-10.27-17.53-18.43-4.13-8.15-6.2-18.1-6.2-29.84s1.87-21.72,5.63-29.93c3.75-8.21,9.21-14.4,16.39-18.59,7.18-4.18,15.87-6.28,26.09-6.28,6.96,0,13.73.65,20.3,1.96,6.58,1.3,11.77,2.99,15.58,5.06l-3.26,17.61c-4.79-1.3-9.73-2.34-14.84-3.1-5.11-.76-9.68-1.14-13.7-1.14-6.74,0-12.26,1.28-16.55,3.83-4.3,2.55-7.48,6.39-9.54,11.5-2.07,5.11-3.1,11.53-3.1,19.24s.92,13.94,2.77,19c1.85,5.06,4.7,8.83,8.56,11.33,3.86,2.5,8.89,3.75,15.09,3.75,3.04,0,5.87-.16,8.48-.49,2.61-.33,5.11-.82,7.5-1.47l-1.87-16.99-11.43.54c-.89.04-1.64-.63-1.71-1.51l-.79-10.47c-.07-.93.61-1.74,1.53-1.84l28.69-3.1c1.91-.21,3.6,1.23,3.7,3.15l2.43,47.35c-5.44,1.52-11.28,2.74-17.53,3.67-6.25.92-12.1,1.39-17.53,1.39-10.55,0-19.6-2.07-27.15-6.2Z"/><path class="b" d="m120.99,105.56c-6.58-4.13-11.58-10.27-15-18.43-3.43-8.15-5.14-18.1-5.14-29.84s1.71-22.02,5.14-30.17c3.42-8.15,8.42-14.3,15-18.43,6.58-4.13,14.49-6.2,23.73-6.2s17.61,2.07,24.14,6.2c6.53,4.13,11.5,10.27,14.92,18.43,3.42,8.15,5.14,18.21,5.14,30.17s-1.71,21.69-5.14,29.84c-3.43,8.15-8.4,14.3-14.92,18.43-6.52,4.13-14.57,6.2-24.14,6.2s-17.15-2.07-23.73-6.2Zm35.72-17.7c3.1-2.45,5.41-6.2,6.93-11.25,1.52-5.06,2.28-11.5,2.28-19.33s-.79-14.62-2.36-19.73c-1.58-5.11-3.89-8.86-6.93-11.25-3.05-2.39-6.96-3.59-11.74-3.59s-8.56,1.22-11.66,3.67c-3.1,2.45-5.44,6.2-7.01,11.25-1.58,5.06-2.37,11.61-2.37,19.65s.79,14.3,2.37,19.41c1.57,5.11,3.88,8.86,6.93,11.25,3.04,2.39,6.96,3.59,11.74,3.59s8.73-1.22,11.83-3.67Z"/><path class="b" d="m206.37,60.3c-5.22-17.34-8.81-35.8-10.76-55.37h22.51c1.85,16.42,4.76,31.97,8.73,46.64,3.97,14.68,8.89,28.05,14.76,40.12h2.28c5.87-11.96,10.77-25.28,14.68-39.96,3.91-14.68,6.85-30.28,8.81-46.81h22.51c-1.96,19.57-5.57,38.03-10.85,55.37-4.75,15.63-10.63,30.43-17.63,44.42-1.4,2.8-4.26,4.59-7.39,4.59h-21.86c-3.55,0-6.8-2.01-8.4-5.18-6.95-13.82-12.74-28.42-17.38-43.83Z"/></svg>